<svg xmlns="http://www.w3.org/2000/svg" viewBox="0 0 18 18" fill="none">
  <rect x="3" y="1" width="12" height="8" rx="1" stroke="#0078d4" stroke-width="1.2" fill="#0078d4" fill-opacity="0.15"/>
  <line x1="3.5" y1="6.5" x2="14.5" y2="6.5" stroke="#0078d4" stroke-width="0.8" stroke-opacity="0.5"/>
  <circle cx="5.5" cy="3.5" r="0.8" fill="#0078d4"/>
  <circle cx="5.5" cy="5" r="0.8" fill="#0078d4"/>
  <line x1="7.5" y1="3.5" x2="12.5" y2="3.5" stroke="#0078d4" stroke-width="0.8"/>
  <line x1="7.5" y1="5" x2="11" y2="5" stroke="#0078d4" stroke-width="0.8"/>
  <rect x="5" y="7.2" width="2" height="1" rx="0.3" fill="#0078d4" fill-opacity="0.6"/>
  <rect x="8" y="7.2" width="2" height="1" rx="0.3" fill="#0078d4" fill-opacity="0.6"/>
  <rect x="11" y="7.2" width="2" height="1" rx="0.3" fill="#0078d4" fill-opacity="0.6"/>
  <line x1="6" y1="9" x2="6" y2="11" stroke="#0078d4" stroke-width="0.8"/>
  <line x1="9" y1="9" x2="9" y2="13" stroke="#0078d4" stroke-width="0.8"/>
  <line x1="12" y1="9" x2="12" y2="11" stroke="#0078d4" stroke-width="0.8"/>
  <line x1="4" y1="11" x2="14" y2="11" stroke="#0078d4" stroke-width="0.8"/>
  <circle cx="9" cy="13" r="1.2" stroke="#0078d4" stroke-width="0.8" fill="none"/>
  <line x1="4" y1="13" x2="7.8" y2="13" stroke="#0078d4" stroke-width="0.8"/>
  <line x1="10.2" y1="13" x2="14" y2="13" stroke="#0078d4" stroke-width="0.8"/>
  <line x1="4" y1="11" x2="4" y2="15" stroke="#0078d4" stroke-width="0.8"/>
  <line x1="14" y1="11" x2="14" y2="15" stroke="#0078d4" stroke-width="0.8"/>
  <line x1="4" y1="15" x2="14" y2="15" stroke="#0078d4" stroke-width="0.8"/>
</svg>
